<?xml version="1.0" standalone="no"?>
<!DOCTYPE svg PUBLIC "-//W3C//DTD SVG 20010904//EN"
 "http://www.w3.org/TR/2001/REC-SVG-20010904/DTD/svg10.dtd">
<svg version="1.0" xmlns="http://www.w3.org/2000/svg"
 width="1749.000000pt" height="1845.000000pt" viewBox="0 0 1749.000000 1845.000000"
 preserveAspectRatio="xMidYMid meet">

<g transform="translate(0.000000,1845.000000) scale(0.100000,-0.100000)"
fill="#000000" stroke="none">
<path d="M9682 18429 c-370 -48 -665 -303 -757 -655 -25 -96 -38 -232 -30
-324 26 -310 184 -551 465 -709 86 -49 132 -89 157 -140 17 -34 18 -101 23
-1026 5 -922 6 -992 23 -1022 25 -47 62 -62 215 -84 285 -41 441 -71 697 -136
817 -206 1567 -600 2225 -1167 252 -218 661 -646 711 -744 36 -72 37 -150 4
-242 -64 -177 -69 -204 -69 -380 -1 -132 3 -179 18 -235 93 -345 377 -598 747
-665 74 -14 153 -51 173 -83 8 -12 34 -92 57 -177 70 -258 296 -1145 293
-1149 -2 -2 -140 -10 -306 -17 -1587 -71 -2905 -229 -4160 -501 -120 -25 -218
-50 -218 -53 0 -18 164 -74 765 -258 1024 -315 1081 -332 1136 -332 27 0 233
38 457 84 1282 265 2239 391 3557 467 105 6 507 13 895 16 510 4 707 8 712 17
12 18 9 135 -7 247 -8 57 -30 237 -50 399 -87 722 -145 1029 -284 1520 -545
1920 -1630 3465 -3255 4640 -354 255 -897 590 -1224 754 -230 115 -1049 448
-1135 461 -103 16 -208 -41 -243 -130 -33 -87 1 -291 59 -353 30 -32 49 -41
248 -118 903 -347 1677 -795 2369 -1371 819 -683 1471 -1465 1963 -2354 340
-614 606 -1297 786 -2017 63 -250 97 -434 150 -797 23 -154 43 -288 45 -297 4
-17 -41 -18 -843 -18 l-847 0 -58 248 c-65 280 -220 910 -266 1081 -51 192
-37 260 82 387 109 117 162 207 203 349 60 208 35 455 -67 660 -169 337 -554
547 -904 494 -49 -8 -118 -14 -154 -13 -111 1 -134 19 -355 279 -159 187 -516
542 -695 691 -539 449 -1014 718 -1780 1005 -131 49 -557 201 -1078 386 l-42
15 2 757 3 756 25 45 c26 46 76 85 191 150 141 79 304 270 368 430 131 331 41
725 -229 991 -192 190 -472 277 -768 238z"/>
<path d="M7910 17354 c-213 -25 -550 -71 -695 -94 -1461 -236 -2795 -843
-3970 -1805 -456 -373 -956 -873 -1329 -1328 -570 -697 -1036 -1502 -1350
-2334 -322 -856 -508 -1780 -551 -2750 l-7 -143 694 0 c1140 0 1873 -39 2858
-151 1741 -198 3397 -544 4800 -1004 441 -144 644 -181 878 -157 178 18 260
43 529 165 180 82 352 137 761 242 202 52 380 98 396 103 34 9 56 37 41 51 -7
6 -1793 533 -1997 589 -17 4 -18 75 -20 1273 l-3 1268 -185 -199 c-102 -110
-188 -200 -191 -200 -4 0 -9 10 -12 23 -3 12 -26 82 -52 154 -43 124 -47 142
-55 275 -10 161 -26 251 -71 386 -105 317 -349 613 -647 783 -155 88 -378 162
-582 190 -124 18 -496 18 -670 0 l-135 -14 -44 -44 -44 -43 6 -173 c17 -474
133 -844 357 -1145 164 -220 430 -433 652 -521 155 -62 234 -76 438 -75 190 0
285 13 442 61 l57 18 -654 698 c-360 385 -655 701 -655 704 0 8 183 -92 322
-175 152 -90 328 -216 466 -330 131 -108 410 -394 494 -506 167 -223 274 -519
308 -855 12 -124 12 -503 0 -846 -5 -147 -5 -325 1 -434 5 -101 8 -185 6 -187
-1 -1 -74 13 -162 32 -1609 341 -3512 567 -5223 620 -122 4 -225 11 -228 15
-7 12 22 258 52 439 77 467 214 926 410 1367 83 187 195 407 234 462 43 58
107 85 240 100 216 25 380 102 526 246 143 142 212 267 250 455 14 71 16 115
10 272 l-7 188 27 50 c68 125 633 575 1044 832 277 173 721 404 849 442 69 20
161 20 231 1 169 -47 242 -57 385 -52 159 6 265 31 394 95 378 185 568 607
461 1021 -77 300 -308 546 -600 639 -197 63 -391 63 -585 1 -132 -42 -234
-106 -341 -213 -135 -135 -212 -278 -250 -466 -17 -85 -16 -236 2 -461 l6 -77
-201 -102 c-640 -324 -1151 -671 -1604 -1087 -140 -129 -191 -138 -353 -65
-147 67 -241 85 -414 79 -163 -6 -223 -19 -347 -77 -256 -120 -419 -305 -500
-567 -24 -80 -27 -103 -27 -253 -1 -143 2 -175 22 -243 34 -118 82 -210 186
-359 l95 -135 -108 -229 c-328 -690 -473 -1139 -581 -1789 -21 -126 -46 -299
-56 -382 l-19 -153 -858 0 -857 0 4 38 c3 20 8 89 11 151 3 63 12 158 21 210
219 1380 722 2591 1517 3650 842 1123 1976 2042 3210 2601 770 348 1551 564
2464 679 251 32 301 47 362 104 90 85 95 240 11 354 -53 72 -169 111 -290 97z"/>
<path d="M10415 13348 c-560 -56 -1092 -348 -1358 -746 -86 -128 -160 -307
-199 -482 -20 -91 -23 -131 -22 -295 0 -202 12 -272 64 -393 l22 -50 157 196
c391 487 681 765 1020 980 79 50 272 152 287 152 4 0 -72 -82 -168 -182 -357
-375 -526 -576 -695 -830 -139 -210 -330 -584 -309 -605 3 -4 118 -7 254 -7
272 -1 335 8 535 74 596 199 1010 763 1088 1485 14 133 6 435 -15 549 -13 67
-20 85 -49 113 -19 20 -50 38 -73 43 -49 12 -419 10 -539 -2z"/>
<path d="M17150 8413 c-361 -15 -580 -26 -770 -38 -2756 -180 -5411 -815
-8020 -1918 -832 -352 -1779 -813 -2594 -1264 -1076 -596 -2124 -1258 -3171
-2006 -154 -110 -299 -214 -322 -232 l-41 -32 182 -194 c330 -351 678 -663
1063 -953 168 -126 541 -379 553 -374 4 2 250 208 547 459 1020 863 1393 1166
1958 1590 1661 1246 3366 2238 5210 3031 1238 532 2486 926 3655 1152 498 97
750 131 1515 207 286 28 522 53 524 55 2 1 11 120 20 263 l16 261 -130 -2
c-71 -1 -159 -3 -195 -5z"/>
<path d="M25 8338 c4 -40 10 -152 14 -249 10 -266 -3 -257 376 -284 369 -27
686 -66 1099 -135 1439 -241 2750 -604 4057 -1124 315 -125 363 -138 544 -143
215 -6 273 10 604 171 284 138 435 205 944 421 191 81 347 151 347 155 0 13
-598 194 -1060 320 -1721 471 -3448 762 -5215 879 -537 36 -1158 61 -1519 61
l-199 0 8 -72z"/>
<path d="M16855 7395 c-739 -108 -1047 -164 -1540 -281 -1386 -328 -2852 -906
-4344 -1713 -1570 -850 -3042 -1887 -4626 -3260 -317 -275 -517 -456 -1060
-960 -321 -298 -299 -274 -285 -301 28 -53 696 -335 1110 -468 418 -135 861
-240 1291 -306 197 -31 251 -32 304 -6 55 26 47 18 276 285 685 799 1474 1604
2284 2330 668 598 1465 1239 2120 1706 1548 1103 3073 1854 4635 2284 225 62
245 79 279 236 22 106 91 494 91 517 0 6 -8 12 -17 11 -10 -1 -243 -34 -518
-74z"/>
<path d="M110 7352 c0 -22 95 -485 126 -617 40 -166 61 -211 127 -272 37 -34
64 -47 163 -78 1037 -319 1888 -680 2582 -1097 263 -158 388 -202 572 -202
195 0 289 37 566 221 218 145 344 217 802 455 195 102 355 188 355 193 1 4
-86 43 -193 87 -1642 665 -3226 1089 -4775 1278 -137 16 -267 32 -287 35 -21
3 -38 2 -38 -3z"/>
<path d="M17005 6174 c-1481 -538 -2831 -1310 -4190 -2398 -1266 -1013 -2505
-2253 -3675 -3679 l-72 -89 108 7 c367 21 677 56 999 110 2207 374 4223 1610
5575 3420 563 753 992 1574 1289 2463 34 101 61 185 61 188 0 9 -27 2 -95 -22z"/>
<path d="M529 5743 c216 -576 493 -1133 822 -1648 146 -229 274 -411 287 -408
17 4 1402 924 1402 932 0 3 -89 61 -198 127 -619 382 -1144 653 -1717 889
-190 78 -560 216 -617 230 l-27 7 48 -129z"/>
</g>
</svg>
